<svg width="64" height="64" viewBox="0 0 64 64" fill="none" xmlns="http://www.w3.org/2000/svg">
<g clip-path="url(#clip0_1_3)">
<path d="M24 16C24 22.3652 26.5286 28.4697 31.0295 32.9706C35.5303 37.4714 41.6348 40 48 40C50.4267 40 52.7653 39.6427 54.9707 38.9733C53.4732 43.899 50.4321 48.213 46.2961 51.2787C42.1602 54.3444 37.1483 55.9996 32 56C26.2423 56.0042 20.675 53.9383 16.3137 50.1792C11.9524 46.4202 9.08785 41.2185 8.24263 35.5231C7.39742 29.8278 8.62786 24.0184 11.7095 19.1548C14.7911 14.2911 19.5186 10.6975 25.0293 9.02933C24.3451 11.2896 23.9983 13.6384 24 16Z" stroke="black" stroke-width="5.33333" stroke-linecap="round" stroke-linejoin="round"/>
</g>
<defs>
<clipPath id="clip0_1_3">
<rect width="64" height="64" fill="white"/>
</clipPath>
</defs>
</svg>
