<svg width="64" height="64" viewBox="0 0 64 64" fill="none" xmlns="http://www.w3.org/2000/svg">
<g clip-path="url(#clip0_1_6)">
<path d="M29 9V8C29 7.20435 29.3161 6.44129 29.8787 5.87868C30.4413 5.31607 31.2044 5 32 5C32.7956 5 33.5587 5.31607 34.1213 5.87868C34.6839 6.44129 35 7.20435 35 8V9C35 9.79565 34.6839 10.5587 34.1213 11.1213C33.5587 11.6839 32.7956 12 32 12C31.2044 12 30.4413 11.6839 29.8787 11.1213C29.3161 10.5587 29 9.79565 29 9ZM49 32C49 35.3623 48.003 38.6491 46.135 41.4447C44.267 44.2403 41.612 46.4193 38.5056 47.706C35.3993 48.9926 31.9811 49.3293 28.6835 48.6734C25.3858 48.0174 22.3567 46.3983 19.9792 44.0208C17.6017 41.6433 15.9826 38.6142 15.3267 35.3165C14.6707 32.0189 15.0074 28.6007 16.294 25.4944C17.5807 22.388 19.7597 19.733 22.5553 17.865C25.3509 15.997 28.6377 15 32 15C36.5073 15.0046 40.8286 16.7972 44.0157 19.9843C47.2028 23.1714 48.9954 27.4927 49 32ZM43 32C43 29.8244 42.3549 27.6977 41.1462 25.8887C39.9375 24.0798 38.2195 22.6699 36.2095 21.8373C34.1995 21.0048 31.9878 20.7869 29.854 21.2114C27.7202 21.6358 25.7602 22.6834 24.2218 24.2218C22.6834 25.7602 21.6358 27.7202 21.2114 29.854C20.7869 31.9878 21.0048 34.1995 21.8373 36.2095C22.6699 38.2195 24.0798 39.9375 25.8887 41.1462C27.6977 42.3549 29.8244 43 32 43C34.9164 42.9967 37.7123 41.8367 39.7745 39.7745C41.8367 37.7123 42.9967 34.9164 43 32ZM12.8775 17.1225C13.1566 17.4016 13.4878 17.6229 13.8525 17.7739C14.2171 17.925 14.6079 18.0027 15.0025 18.0027C15.3971 18.0027 15.7879 17.925 16.1525 17.7739C16.5172 17.6229 16.8484 17.4016 17.1275 17.1225C17.4066 16.8434 17.6279 16.5121 17.7789 16.1475C17.93 15.7829 18.0077 15.3921 18.0077 14.9975C18.0077 14.6029 17.93 14.2121 17.7789 13.8475C17.6279 13.4828 17.4066 13.1516 17.1275 12.8725L16.1275 11.8725C15.5639 11.3089 14.7995 10.9923 14.0025 10.9923C13.2055 10.9923 12.4411 11.3089 11.8775 11.8725C11.3139 12.4361 10.9973 13.2005 10.9973 13.9975C10.9973 14.7945 11.3139 15.5589 11.8775 16.1225L12.8775 17.1225ZM12.8775 46.8725L11.8775 47.8725C11.5984 48.1516 11.3771 48.4828 11.2261 48.8475C11.075 49.2121 10.9973 49.6029 10.9973 49.9975C10.9973 50.3922 11.075 50.7829 11.2261 51.1475C11.3771 51.5121 11.5984 51.8434 11.8775 52.1225C12.4411 52.6861 13.2055 53.0027 14.0025 53.0027C14.3971 53.0027 14.7879 52.925 15.1525 52.7739C15.5172 52.6229 15.8484 52.4016 16.1275 52.1225L17.1275 51.1225C17.6911 50.5589 18.0077 49.7945 18.0077 48.9975C18.0077 48.2005 17.6911 47.4361 17.1275 46.8725C16.5639 46.3089 15.7995 45.9923 15.0025 45.9923C14.2055 45.9923 13.4411 46.3089 12.8775 46.8725ZM49 18C49.3941 18.0003 49.7844 17.923 50.1485 17.7724C50.5127 17.6218 50.8437 17.401 51.1225 17.1225L52.1225 16.1225C52.6861 15.5589 53.0027 14.7945 53.0027 13.9975C53.0027 13.2005 52.6861 12.4361 52.1225 11.8725C51.5589 11.3089 50.7945 10.9923 49.9975 10.9923C49.2005 10.9923 48.4361 11.3089 47.8725 11.8725L46.8725 12.8725C46.4504 13.2921 46.1627 13.8278 46.0459 14.4113C45.9291 14.9949 45.9886 15.6 46.2167 16.1497C46.4447 16.6995 46.8312 17.1689 47.3268 17.4984C47.8224 17.8278 48.4049 18.0025 49 18ZM51.1225 46.8775C50.5589 46.3139 49.7945 45.9973 48.9975 45.9973C48.2005 45.9973 47.4361 46.3139 46.8725 46.8775C46.3089 47.4411 45.9923 48.2055 45.9923 49.0025C45.9923 49.7995 46.3089 50.5639 46.8725 51.1275L47.8725 52.1275C48.4361 52.6911 49.2005 53.0077 49.9975 53.0077C50.7945 53.0077 51.5589 52.6911 52.1225 52.1275C52.6861 51.5639 53.0027 50.7995 53.0027 50.0025C53.0027 49.2055 52.6861 48.4411 52.1225 47.8775L51.1225 46.8775ZM12 32C12 31.2044 11.6839 30.4413 11.1213 29.8787C10.5587 29.3161 9.79565 29 9 29H8C7.20435 29 6.44129 29.3161 5.87868 29.8787C5.31607 30.4413 5 31.2044 5 32C5 32.7956 5.31607 33.5587 5.87868 34.1213C6.44129 34.6839 7.20435 35 8 35H9C9.79565 35 10.5587 34.6839 11.1213 34.1213C11.6839 33.5587 12 32.7956 12 32ZM32 52C31.2044 52 30.4413 52.3161 29.8787 52.8787C29.3161 53.4413 29 54.2044 29 55V56C29 56.7956 29.3161 57.5587 29.8787 58.1213C30.4413 58.6839 31.2044 59 32 59C32.7956 59 33.5587 58.6839 34.1213 58.1213C34.6839 57.5587 35 56.7956 35 56V55C35 54.2044 34.6839 53.4413 34.1213 52.8787C33.5587 52.3161 32.7956 52 32 52ZM56 29H55C54.2044 29 53.4413 29.3161 52.8787 29.8787C52.3161 30.4413 52 31.2044 52 32C52 32.7956 52.3161 33.5587 52.8787 34.1213C53.4413 34.6839 54.2044 35 55 35H56C56.7956 35 57.5587 34.6839 58.1213 34.1213C58.6839 33.5587 59 32.7956 59 32C59 31.2044 58.6839 30.4413 58.1213 29.8787C57.5587 29.3161 56.7956 29 56 29Z" fill="black"/>
</g>
<defs>
<clipPath id="clip0_1_6">
<rect width="64" height="64" fill="white"/>
</clipPath>
</defs>
</svg>
