<svg width="24" height="24" viewBox="0 0 24 24" fill="none" xmlns="http://www.w3.org/2000/svg">
<path d="M17.2806 4.29C16.4959 3.37956 16.0634 2.21034 16.0638 1H12.5166V15.4667C12.4892 16.2495 12.164 16.9911 11.6094 17.5351C11.0548 18.0791 10.3142 18.3832 9.54337 18.3833C7.91326 18.3833 6.55867 17.03 6.55867 15.35C6.55867 13.3433 8.46429 11.8383 10.4273 12.4567V8.77C6.46684 8.23333 3 11.36 3 15.35C3 19.235 6.16837 22 9.53189 22C13.1365 22 16.0638 19.025 16.0638 15.35V8.01167C17.5022 9.06149 19.2291 9.62475 21 9.62167V6.01667C21 6.01667 18.8418 6.12167 17.2806 4.29Z" fill="white"/>
</svg>
